<?xml version="1.0" encoding="UTF-8" standalone="no" ?>
<!DOCTYPE svg PUBLIC "-//W3C//DTD SVG 1.1//EN" "http://www.w3.org/Graphics/SVG/1.1/DTD/svg11.dtd">
<svg xmlns="http://www.w3.org/2000/svg" xmlns:xlink="http://www.w3.org/1999/xlink" version="1.1" width="500" height="80" viewBox="0 0 500 80" xml:space="preserve">
<desc>Created with Fabric.js 5.3.0</desc>
<defs>
</defs>
<g transform="matrix(1 0 0 1 249.5 40)" id="_3JKgigh-BmJgJdR7PmT5"  >
<g style="" vector-effect="non-scaling-stroke"   >
		<g transform="matrix(1 0 0 1 -202.1236859149 0)" id="3qps_HdwNm6hjrhUw7mBn"  >
<g style="" vector-effect="non-scaling-stroke"   >
		<g transform="matrix(0.0436970397 0 0 0.0436970397 15.6895094901 16.0082548777)" id="lY7t56tDje7TzeoIC2Twu"  >
<path style="stroke: rgb(0,0,0); stroke-opacity: 0; stroke-width: 0; stroke-dasharray: none; stroke-linecap: square; stroke-dashoffset: 0; stroke-linejoin: bevel; stroke-miterlimit: 4; fill: rgb(255,255,255); fill-rule: nonzero; opacity: 1;" vector-effect="non-scaling-stroke"  transform=" translate(-407.9705, -161.1294389355)" d="M 815.941 22.985 L 654.14 245.685 C 593.847 328.671 477.697 347.067 394.711 286.774 L 0 0 Z" stroke-linecap="round" />
</g>
		<g transform="matrix(0.0436970397 0 0 0.0436970397 -15.6895094901 -16.0082828722)" id="vSPrfQxrrN-Qhj4MYdLfO"  >
<path style="stroke: rgb(0,0,0); stroke-opacity: 0; stroke-width: 0; stroke-dasharray: none; stroke-linecap: square; stroke-dashoffset: 0; stroke-linejoin: bevel; stroke-miterlimit: 4; fill: rgb(255,255,255); fill-rule: nonzero; opacity: 1;" vector-effect="non-scaling-stroke"  transform=" translate(-407.9705, -161.1290015703)" d="M 0 299.274 L 161.801 76.5741 C 222.094 -6.4119 338.244 -24.8079 421.23 35.4841 L 815.941 322.258 Z" stroke-linecap="round" />
</g>
		<g transform="matrix(0.0436970397 0 0 0.0436970397 7.1270090198 18.9413449162)" id="9Ze48OKBEADJk44WAmlZx"  >
<path style="stroke: rgb(0,0,0); stroke-opacity: 0; stroke-width: 0; stroke-dasharray: none; stroke-linecap: square; stroke-dashoffset: 0; stroke-linejoin: bevel; stroke-miterlimit: 4; fill: rgb(255,255,255); fill-rule: nonzero; opacity: 1;" vector-effect="non-scaling-stroke"  transform=" translate(-323.3, -296.1987511818)" d="M 646.6 498.193 L 384.801 583.257 C 287.245 614.955 182.465 561.566 150.767 464.011 L 0 0 Z" stroke-linecap="round" />
</g>
		<g transform="matrix(0.0436970397 0 0 0.0436970397 -7.1270308684 -18.9413337143)" id="R_did2_9UCk5BzTnje5ff"  >
<path style="stroke: rgb(0,0,0); stroke-opacity: 0; stroke-width: 0; stroke-dasharray: none; stroke-linecap: square; stroke-dashoffset: 0; stroke-linejoin: bevel; stroke-miterlimit: 4; fill: rgb(255,255,255); fill-rule: nonzero; opacity: 1;" vector-effect="non-scaling-stroke"  transform=" translate(-323.2995, -296.1990006849)" d="M 0 94.2045 L 261.799 9.1405 C 359.355 -22.5575 464.135 30.8315 495.833 128.387 L 646.599 592.398 Z" stroke-linecap="round" />
</g>
		<g transform="matrix(0.0436970397 0 0 0.0436970397 -7.6514861001 17.8478592194)" id="ExgsK2wjBJA7ZqMKWAhKk"  >
<path style="stroke: rgb(0,0,0); stroke-opacity: 0; stroke-width: 0; stroke-dasharray: none; stroke-linecap: square; stroke-dashoffset: 0; stroke-linejoin: bevel; stroke-miterlimit: 4; fill: rgb(255,255,255); fill-rule: nonzero; opacity: 1;" vector-effect="non-scaling-stroke"  transform=" translate(-195.0930016039, -391.5545)" d="M 390.186 783.109 L 128.387 698.045 C 30.8306 666.347 -22.5574 561.566 9.14059 464.011 L 159.907 0 Z" stroke-linecap="round" />
</g>
		<g transform="matrix(0.0436970397 0 0 0.0436970397 7.651452032 -17.8478592194)" id="7fXaaPqVRqI4k7fly_gll"  >
<path style="stroke: rgb(0,0,0); stroke-opacity: 0; stroke-width: 0; stroke-dasharray: none; stroke-linecap: square; stroke-dashoffset: 0; stroke-linejoin: bevel; stroke-miterlimit: 4; fill: rgb(255,255,255); fill-rule: nonzero; opacity: 1;" vector-effect="non-scaling-stroke"  transform=" translate(-195.0927972856, -391.5545)" d="M 0 0 L 261.799 85.064 C 359.355 116.762 412.743 221.542 381.045 319.098 L 230.279 783.109 Z" stroke-linecap="round" />
</g>
		<g transform="matrix(0.0436970397 0 0 0.0436970397 -18.1648196192 11.9953836044)" id="6LRKgun3WMvqPkUHBFeF3"  >
<path style="stroke: rgb(0,0,0); stroke-opacity: 0; stroke-width: 0; stroke-dasharray: none; stroke-linecap: square; stroke-dashoffset: 0; stroke-linejoin: bevel; stroke-miterlimit: 4; fill: rgb(255,255,255); fill-rule: nonzero; opacity: 1;" vector-effect="non-scaling-stroke"  transform=" translate(-235.642997924, -384.4515)" d="M 197.286 768.903 L 35.4845 546.203 C -24.8085 463.217 -6.41141 347.067 76.5745 286.774 L 471.286 0 Z" stroke-linecap="round" />
</g>
		<g transform="matrix(0.0436970397 0 0 0.0436970397 18.1647835757 -11.9953399073)" id="Dh-lKAz0jHaC4vXCMP8XR"  >
<path style="stroke: rgb(0,0,0); stroke-opacity: 0; stroke-width: 0; stroke-dasharray: none; stroke-linecap: square; stroke-dashoffset: 0; stroke-linejoin: bevel; stroke-miterlimit: 4; fill: rgb(255,255,255); fill-rule: nonzero; opacity: 1;" vector-effect="non-scaling-stroke"  transform=" translate(-235.6427649167, -384.4515)" d="M 274 0 L 435.801 222.7 C 496.094 305.686 477.697 421.836 394.711 482.129 L 0 768.903 Z" stroke-linecap="round" />
</g>
		<g transform="matrix(0.0436970397 0 0 0.0436970397 -18.2591576054 1.5610111969)" id="0EgxDx22YJqq96UJzXEj4"  >
<path style="stroke: rgb(0,0,0); stroke-opacity: 0; stroke-width: 0; stroke-dasharray: none; stroke-linecap: square; stroke-dashoffset: 0; stroke-linejoin: bevel; stroke-miterlimit: 4; fill: rgb(255,255,255); fill-rule: nonzero; opacity: 1;" vector-effect="non-scaling-stroke"  transform=" translate(-336.8105, -230.5015)" d="M 0 461.003 L 0 185.731 C 0 83.155 83.154 0 185.731 0 L 673.621 0 Z" stroke-linecap="round" />
</g>
		<g transform="matrix(0.0436970397 0 0 0.0436970397 18.2591139083 -1.5610111969)" id="82Kd5zg9YulJzFkR7eeQ6"  >
<path style="stroke: rgb(0,0,0); stroke-opacity: 0; stroke-width: 0; stroke-dasharray: none; stroke-linecap: square; stroke-dashoffset: 0; stroke-linejoin: bevel; stroke-miterlimit: 4; fill: rgb(255,255,255); fill-rule: nonzero; opacity: 1;" vector-effect="non-scaling-stroke"  transform=" translate(-336.8105, -230.5015)" d="M 673.621 0 L 673.621 275.272 C 673.621 377.848 590.467 461.003 487.89 461.003 L 0 461.003 Z" stroke-linecap="round" />
</g>
</g>
</g>
		<g transform="matrix(1.3333333333 0 0 1.3333333333 48.0122985446 0)" id="JtzrMzbEQmThKZGAyPft3"  >
<path style="stroke: rgb(0,0,0); stroke-opacity: 0; stroke-width: 1; stroke-dasharray: none; stroke-linecap: butt; stroke-dashoffset: 0; stroke-linejoin: miter; stroke-miterlimit: 4; fill: rgb(255,255,255); fill-rule: nonzero; opacity: 1;" vector-effect="non-scaling-stroke"  transform=" translate(0, 0)" d="M -122.67 12.51 L -140.346 12.51 L -140.346 -12.438 L -123.498 -12.438 L -123.498 -7.722 L -134.73000000000002 -7.722 L -134.73000000000002 -2.8260000000000005 L -124.75800000000002 -2.8260000000000005 L -124.75800000000002 1.7819999999999991 L -134.73000000000002 1.7819999999999991 L -134.73000000000002 7.793999999999999 L -122.67000000000002 7.793999999999999 z M -108.774 13.014 L -108.774 13.014 C -110.526 13.014 -112.038 12.767999999999999 -113.31 12.276 C -114.58200000000001 11.783999999999999 -115.632 11.1 -116.46000000000001 10.224 C -117.28800000000001 9.348 -117.9 8.304 -118.296 7.0920000000000005 C -118.69200000000001 5.880000000000001 -118.89 4.542000000000001 -118.89 3.0780000000000003 L -118.89 3.0780000000000003 L -118.89 -12.437999999999999 L -113.274 -12.437999999999999 L -113.274 2.610000000000001 C -113.274 3.618000000000001 -113.16 4.476000000000001 -112.932 5.184000000000001 C -112.70400000000001 5.892000000000001 -112.392 6.468000000000001 -111.996 6.912000000000001 C -111.6 7.356000000000001 -111.11999999999999 7.674000000000001 -110.556 7.8660000000000005 C -109.992 8.058 -109.374 8.154 -108.702 8.154 L -108.702 8.154 C -107.334 8.154 -106.224 7.734 -105.372 6.894 C -104.52 6.054 -104.094 4.626 -104.094 2.6100000000000003 L -104.094 2.6100000000000003 L -104.094 -12.437999999999999 L -98.478 -12.437999999999999 L -98.478 3.078000000000001 C -98.478 4.542000000000002 -98.68199999999999 5.886000000000001 -99.08999999999999 7.110000000000001 C -99.49799999999999 8.334000000000001 -100.12199999999999 9.384 -100.96199999999999 10.260000000000002 C -101.80199999999999 11.136000000000001 -102.86999999999999 11.814000000000002 -104.16599999999998 12.294 C -105.46199999999999 12.774000000000001 -106.99799999999998 13.014000000000001 -108.77399999999999 13.014000000000001 z M -85.77 -12.726 L -85.77 -12.726 C -82.026 -12.726 -79.158 -12.06 -77.166 -10.728000000000002 C -75.17399999999999 -9.396 -74.178 -7.326000000000001 -74.178 -4.518000000000002 L -74.178 -4.518000000000002 C -74.178 -2.766000000000002 -74.58 -1.3440000000000016 -75.384 -0.25200000000000156 C -76.188 0.8399999999999985 -77.346 1.6979999999999984 -78.858 2.3219999999999983 L -78.858 2.3219999999999983 C -78.354 2.9459999999999984 -77.82600000000001 3.6599999999999984 -77.274 4.463999999999999 C -76.722 5.267999999999999 -76.176 6.107999999999999 -75.636 6.983999999999998 C -75.09599999999999 7.8599999999999985 -74.574 8.771999999999998 -74.07 9.719999999999999 C -73.56599999999999 10.668 -73.098 11.597999999999999 -72.666 12.509999999999998 L -72.666 12.509999999999998 L -78.966 12.509999999999998 C -79.422 11.693999999999997 -79.884 10.865999999999998 -80.35199999999999 10.025999999999998 C -80.82 9.185999999999998 -81.29999999999998 8.369999999999997 -81.79199999999999 7.577999999999998 C -82.28399999999999 6.785999999999998 -82.76999999999998 6.035999999999998 -83.24999999999999 5.327999999999998 C -83.72999999999999 4.619999999999997 -84.20999999999998 3.9779999999999975 -84.68999999999998 3.4019999999999975 L -84.68999999999998 3.4019999999999975 L -87.46199999999999 3.4019999999999975 L -87.46199999999999 12.509999999999998 L -93.07799999999999 12.509999999999998 L -93.07799999999999 -12.078000000000003 C -91.85399999999998 -12.318000000000003 -90.588 -12.486000000000002 -89.27999999999999 -12.582000000000003 C -87.97199999999998 -12.678000000000003 -86.80199999999999 -12.726000000000003 -85.76999999999998 -12.726000000000003 z M -85.446 -7.938 L -85.446 -7.938 C -85.854 -7.938 -86.22 -7.926 -86.544 -7.902 C -86.868 -7.878 -87.17399999999999 -7.854 -87.462 -7.83 L -87.462 -7.83 L -87.462 -1.0620000000000003 L -85.878 -1.0620000000000003 C -83.766 -1.0620000000000003 -82.254 -1.3260000000000003 -81.342 -1.8540000000000003 C -80.42999999999999 -2.3820000000000006 -79.974 -3.282 -79.974 -4.554 L -79.974 -4.554 C -79.974 -5.7780000000000005 -80.436 -6.648 -81.36 -7.164 C -82.284 -7.68 -83.646 -7.938 -85.446 -7.938 z M -45.234 12.51 L -51.246 12.51 C -51.510000000000005 11.645999999999999 -51.804 10.758 -52.128 9.846 C -52.452 8.934 -52.77 8.022 -53.082 7.109999999999999 L -53.082 7.109999999999999 L -62.802 7.109999999999999 C -63.114 8.022 -63.432 8.934 -63.756 9.846 C -64.08 10.758000000000001 -64.374 11.646 -64.638 12.51 L -64.638 12.51 L -70.47 12.51 C -69.53399999999999 9.822 -68.646 7.338 -67.806 5.058 C -66.966 2.778 -66.14399999999999 0.6299999999999999 -65.34 -1.3860000000000001 C -64.536 -3.402 -63.744 -5.316000000000001 -62.964000000000006 -7.128 C -62.184000000000005 -8.94 -61.374 -10.71 -60.534000000000006 -12.437999999999999 L -60.534000000000006 -12.437999999999999 L -55.17000000000001 -12.437999999999999 C -54.354000000000006 -10.709999999999999 -53.55000000000001 -8.939999999999998 -52.75800000000001 -7.127999999999999 C -51.96600000000001 -5.315999999999999 -51.168000000000006 -3.4019999999999992 -50.36400000000001 -1.3859999999999992 C -49.56000000000001 0.6300000000000008 -48.738000000000014 2.7780000000000005 -47.89800000000001 5.058000000000001 C -47.05800000000001 7.338000000000001 -46.17000000000001 9.822000000000001 -45.23400000000001 12.510000000000002 z M -57.978 -6.786 L -57.978 -6.786 C -58.098 -6.425999999999999 -58.278 -5.933999999999999 -58.518 -5.31 C -58.758 -4.686 -59.034 -3.9659999999999993 -59.346000000000004 -3.1499999999999995 C -59.658 -2.3339999999999996 -60.00000000000001 -1.4339999999999995 -60.37200000000001 -0.4499999999999993 C -60.74400000000001 0.5340000000000007 -61.12200000000001 1.5660000000000007 -61.50600000000001 2.646000000000001 L -61.50600000000001 2.646000000000001 L -54.41400000000001 2.646000000000001 C -54.79800000000001 1.5660000000000007 -55.17000000000001 0.5340000000000007 -55.53000000000001 -0.4499999999999993 C -55.89000000000001 -1.4339999999999993 -56.232000000000006 -2.333999999999999 -56.55600000000001 -3.1499999999999995 C -56.88000000000001 -3.9659999999999993 -57.16200000000001 -4.686 -57.40200000000001 -5.31 C -57.64200000000001 -5.933999999999999 -57.83400000000001 -6.426 -57.97800000000001 -6.786 z M -34.506 8.226 L -34.506 8.226 C -33.714 8.226 -33.06 8.16 -32.544 8.028 C -32.028 7.896000000000001 -31.613999999999997 7.716 -31.301999999999996 7.488 C -30.989999999999995 7.260000000000001 -30.773999999999997 6.99 -30.653999999999996 6.678000000000001 C -30.533999999999995 6.3660000000000005 -30.473999999999997 6.018000000000001 -30.473999999999997 5.634 L -30.473999999999997 5.634 C -30.473999999999997 4.8180000000000005 -30.857999999999997 4.140000000000001 -31.625999999999998 3.6000000000000005 C -32.394 3.0600000000000005 -33.714 2.4780000000000006 -35.586 1.8540000000000005 L -35.586 1.8540000000000005 C -36.402 1.5660000000000005 -37.217999999999996 1.2360000000000007 -38.034 0.8640000000000005 C -38.85 0.49200000000000055 -39.582 0.024000000000000576 -40.23 -0.5399999999999994 C -40.878 -1.1039999999999992 -41.406 -1.7879999999999994 -41.814 -2.5919999999999996 C -42.222 -3.396 -42.426 -4.374 -42.426 -5.526 L -42.426 -5.526 C -42.426 -6.678 -42.21 -7.715999999999999 -41.778 -8.64 C -41.346 -9.564 -40.734 -10.350000000000001 -39.942 -10.998000000000001 C -39.15 -11.646 -38.19 -12.144000000000002 -37.062 -12.492 C -35.934 -12.840000000000002 -34.662 -13.014000000000001 -33.245999999999995 -13.014000000000001 L -33.245999999999995 -13.014000000000001 C -31.565999999999995 -13.014000000000001 -30.113999999999994 -12.834000000000001 -28.889999999999993 -12.474 C -27.665999999999993 -12.114 -26.657999999999994 -11.718 -25.865999999999993 -11.286 L -25.865999999999993 -11.286 L -27.485999999999994 -6.858 C -28.181999999999995 -7.218 -28.955999999999992 -7.536 -29.807999999999993 -7.811999999999999 C -30.659999999999993 -8.088 -31.685999999999993 -8.225999999999999 -32.885999999999996 -8.225999999999999 L -32.885999999999996 -8.225999999999999 C -34.23 -8.225999999999999 -35.196 -8.04 -35.784 -7.667999999999999 C -36.372 -7.295999999999999 -36.666 -6.725999999999999 -36.666 -5.957999999999999 L -36.666 -5.957999999999999 C -36.666 -5.501999999999999 -36.558 -5.117999999999999 -36.342 -4.805999999999999 C -36.126 -4.493999999999999 -35.82 -4.211999999999999 -35.424 -3.959999999999999 C -35.028 -3.7079999999999993 -34.572 -3.479999999999999 -34.056 -3.275999999999999 C -33.54 -3.0719999999999987 -32.97 -2.8619999999999988 -32.346 -2.645999999999999 L -32.346 -2.645999999999999 C -31.049999999999997 -2.165999999999999 -29.921999999999997 -1.691999999999999 -28.961999999999996 -1.223999999999999 C -28.001999999999995 -0.7559999999999991 -27.203999999999997 -0.20999999999999908 -26.567999999999998 0.4140000000000008 C -25.932 1.0380000000000007 -25.458 1.770000000000001 -25.145999999999997 2.610000000000001 C -24.833999999999996 3.450000000000001 -24.677999999999997 4.4700000000000015 -24.677999999999997 5.670000000000002 L -24.677999999999997 5.670000000000002 C -24.677999999999997 7.998000000000001 -25.493999999999996 9.804000000000002 -27.125999999999998 11.088000000000001 C -28.758 12.372000000000002 -31.217999999999996 13.014000000000001 -34.506 13.014000000000001 L -34.506 13.014000000000001 C -35.61 13.014000000000001 -36.606 12.948 -37.494 12.816 C -38.382 12.684000000000001 -39.168 12.522 -39.852 12.33 C -40.535999999999994 12.138 -41.123999999999995 11.934 -41.616 11.718 C -42.108 11.502 -42.522 11.298 -42.858 11.106 L -42.858 11.106 L -41.273999999999994 6.6419999999999995 C -40.529999999999994 7.05 -39.611999999999995 7.4159999999999995 -38.519999999999996 7.739999999999999 C -37.428 8.064 -36.089999999999996 8.225999999999999 -34.50599999999999 8.225999999999999 z M -20.358 12.51 L -20.358 -12.438 L -14.742 -12.438 L -14.742 12.51 z M 13.734 12.51 L 7.722 12.51 C 7.458 11.645999999999999 7.164000000000001 10.758 6.840000000000001 9.846 C 6.516000000000001 8.934 6.198 8.022 5.886000000000001 7.109999999999999 L 5.886000000000001 7.109999999999999 L -3.8339999999999996 7.109999999999999 C -4.146 8.022 -4.4639999999999995 8.934 -4.787999999999999 9.846 C -5.111999999999999 10.758000000000001 -5.406 11.646 -5.669999999999999 12.51 L -5.669999999999999 12.51 L -11.501999999999999 12.51 C -10.565999999999999 9.822 -9.677999999999999 7.338 -8.838 5.058 C -7.997999999999999 2.778 -7.175999999999999 0.6299999999999999 -6.371999999999999 -1.3860000000000001 C -5.567999999999999 -3.402 -4.775999999999999 -5.316000000000001 -3.995999999999999 -7.128 C -3.2159999999999993 -8.94 -2.405999999999999 -10.71 -1.565999999999999 -12.437999999999999 L -1.565999999999999 -12.437999999999999 L 3.798000000000001 -12.437999999999999 C 4.614000000000001 -10.709999999999999 5.418000000000001 -8.939999999999998 6.210000000000001 -7.127999999999999 C 7.002000000000001 -5.315999999999999 7.800000000000001 -3.4019999999999992 8.604000000000001 -1.3859999999999992 C 9.408000000000001 0.6300000000000008 10.23 2.7780000000000005 11.07 5.058000000000001 C 11.91 7.338000000000001 12.798 9.822000000000001 13.734 12.510000000000002 z M 0.99 -6.786 L 0.99 -6.786 C 0.87 -6.425999999999999 0.69 -5.933999999999999 0.44999999999999996 -5.31 C 0.20999999999999996 -4.686 -0.06600000000000006 -3.9659999999999993 -0.378 -3.1499999999999995 C -0.69 -2.3339999999999996 -1.032 -1.4339999999999995 -1.404 -0.4499999999999993 C -1.7759999999999998 0.5340000000000007 -2.154 1.5660000000000007 -2.538 2.646000000000001 L -2.538 2.646000000000001 L 4.554 2.646000000000001 C 4.17 1.5660000000000007 3.798 0.5340000000000007 3.438 -0.4499999999999993 C 3.0780000000000003 -1.4339999999999993 2.736 -2.333999999999999 2.412 -3.1499999999999995 C 2.088 -3.9659999999999993 1.806 -4.686 1.5659999999999998 -5.31 C 1.3259999999999998 -5.933999999999999 1.134 -6.426 0.9899999999999999 -6.786 z M 26.874 -12.438 L 32.238 -12.438 C 32.67 -11.646 33.168 -10.668000000000001 33.732 -9.504000000000001 C 34.296 -8.340000000000002 34.884 -7.080000000000002 35.496 -5.724000000000002 C 36.108000000000004 -4.368000000000002 36.714 -2.982000000000002 37.314 -1.5660000000000016 C 37.914 -0.1500000000000017 38.478 1.1819999999999986 39.006 2.4299999999999984 L 39.006 2.4299999999999984 C 39.534 1.1819999999999984 40.098 -0.1500000000000017 40.698 -1.5660000000000016 C 41.298 -2.9820000000000015 41.904 -4.368000000000002 42.516 -5.724000000000002 C 43.128 -7.080000000000002 43.716 -8.340000000000002 44.28 -9.504000000000001 C 44.844 -10.668000000000001 45.342 -11.646 45.774 -12.438000000000002 L 45.774 -12.438000000000002 L 50.886 -12.438000000000002 C 51.126000000000005 -10.782000000000002 51.348000000000006 -8.928000000000003 51.552 -6.876000000000002 C 51.756 -4.824000000000002 51.936 -2.6880000000000024 52.092 -0.46800000000000175 C 52.248 1.7519999999999984 52.391999999999996 3.977999999999998 52.524 6.209999999999998 C 52.656 8.441999999999998 52.77 10.541999999999998 52.866 12.509999999999998 L 52.866 12.509999999999998 L 47.394 12.509999999999998 C 47.321999999999996 10.085999999999999 47.226 7.445999999999998 47.106 4.589999999999998 C 46.986000000000004 1.7339999999999982 46.806000000000004 -1.1460000000000017 46.566 -4.0500000000000025 L 46.566 -4.0500000000000025 C 46.134 -3.0420000000000025 45.654 -1.9260000000000024 45.126000000000005 -0.7020000000000026 C 44.598000000000006 0.5219999999999974 44.07600000000001 1.7459999999999973 43.56 2.9699999999999975 C 43.044000000000004 4.193999999999997 42.546 5.363999999999997 42.066 6.479999999999997 C 41.586000000000006 7.5959999999999965 41.178000000000004 8.549999999999997 40.842000000000006 9.341999999999997 L 40.842000000000006 9.341999999999997 L 36.918000000000006 9.341999999999997 C 36.58200000000001 8.549999999999997 36.17400000000001 7.5959999999999965 35.69400000000001 6.479999999999997 C 35.21400000000001 5.363999999999997 34.71600000000001 4.193999999999997 34.20000000000001 2.969999999999997 C 33.68400000000001 1.745999999999997 33.16200000000001 0.5219999999999971 32.63400000000001 -0.7020000000000031 C 32.10600000000001 -1.926000000000003 31.62600000000001 -3.042000000000003 31.194000000000006 -4.0500000000000025 L 31.194000000000006 -4.0500000000000025 C 30.954000000000008 -1.1460000000000026 30.774000000000004 1.7339999999999973 30.654000000000007 4.589999999999998 C 30.534000000000006 7.445999999999998 30.438000000000006 10.085999999999999 30.366000000000007 12.509999999999998 L 30.366000000000007 12.509999999999998 L 24.894000000000005 12.509999999999998 C 24.990000000000006 10.541999999999998 25.104000000000006 8.441999999999998 25.236000000000004 6.209999999999998 C 25.368000000000006 3.977999999999998 25.512000000000004 1.751999999999998 25.668000000000003 -0.46800000000000175 C 25.824 -2.688000000000002 26.004 -4.824000000000002 26.208000000000002 -6.876000000000002 C 26.412000000000003 -8.928000000000003 26.634 -10.782000000000002 26.874000000000002 -12.438000000000002 z M 75.582 12.51 L 57.90599999999999 12.51 L 57.90599999999999 -12.438 L 74.75399999999999 -12.438 L 74.75399999999999 -7.722 L 63.52199999999999 -7.722 L 63.52199999999999 -2.8260000000000005 L 73.49399999999999 -2.8260000000000005 L 73.49399999999999 1.7819999999999991 L 63.521999999999984 1.7819999999999991 L 63.521999999999984 7.793999999999999 L 75.58199999999998 7.793999999999999 z M 85.338 -7.83 L 85.338 7.938000000000001 C 85.60199999999999 7.962000000000001 85.90799999999999 7.98 86.256 7.992000000000001 C 86.604 8.004000000000001 87.018 8.010000000000002 87.498 8.010000000000002 L 87.498 8.010000000000002 C 90.30600000000001 8.010000000000002 92.388 7.302000000000001 93.744 5.886000000000001 C 95.1 4.470000000000001 95.778 2.514000000000001 95.778 0.018000000000000682 L 95.778 0.018000000000000682 C 95.778 -2.5979999999999994 95.13000000000001 -4.577999999999999 93.834 -5.922 C 92.538 -7.266 90.486 -7.938 87.678 -7.938 L 87.678 -7.938 C 87.294 -7.938 86.898 -7.9319999999999995 86.49 -7.92 C 86.082 -7.908 85.698 -7.878 85.338 -7.83 z M 101.574 0.018 L 101.574 0.018 C 101.574 2.178 101.238 4.061999999999999 100.566 5.67 C 99.894 7.2780000000000005 98.94 8.61 97.70400000000001 9.666 C 96.468 10.722000000000001 94.962 11.514000000000001 93.186 12.042 C 91.41000000000001 12.57 89.418 12.834 87.21000000000001 12.834 L 87.21000000000001 12.834 C 86.20200000000001 12.834 85.02600000000001 12.792 83.682 12.708 C 82.33800000000001 12.624 81.018 12.45 79.72200000000001 12.186 L 79.72200000000001 12.186 L 79.72200000000001 -12.114 C 81.01800000000001 -12.354000000000001 82.36800000000001 -12.516 83.772 -12.600000000000001 C 85.176 -12.684000000000001 86.382 -12.726 87.39 -12.726 L 87.39 -12.726 C 89.526 -12.726 91.464 -12.486 93.20400000000001 -12.006 C 94.944 -11.526 96.438 -10.77 97.686 -9.738 C 98.93400000000001 -8.706 99.894 -7.385999999999999 100.566 -5.778 C 101.238 -4.17 101.574 -2.2379999999999995 101.574 0.018000000000000682 z M 106.254 12.51 L 106.254 -12.438 L 111.87 -12.438 L 111.87 12.51 z M 140.346 12.51 L 134.334 12.51 C 134.07 11.645999999999999 133.776 10.758 133.452 9.846 C 133.128 8.934 132.81 8.022 132.498 7.109999999999999 L 132.498 7.109999999999999 L 122.77799999999999 7.109999999999999 C 122.466 8.022 122.148 8.934 121.824 9.846 C 121.5 10.758000000000001 121.206 11.646 120.942 12.51 L 120.942 12.51 L 115.11 12.51 C 116.046 9.822 116.934 7.338 117.774 5.058 C 118.614 2.778 119.436 0.6299999999999999 120.24 -1.3860000000000001 C 121.044 -3.402 121.836 -5.316000000000001 122.616 -7.128 C 123.396 -8.94 124.206 -10.71 125.046 -12.437999999999999 L 125.046 -12.437999999999999 L 130.41 -12.437999999999999 C 131.226 -10.709999999999999 132.03 -8.939999999999998 132.822 -7.127999999999999 C 133.614 -5.315999999999999 134.412 -3.4019999999999992 135.216 -1.3859999999999992 C 136.02 0.6300000000000008 136.842 2.7780000000000005 137.68200000000002 5.058000000000001 C 138.52200000000002 7.338000000000001 139.41000000000003 9.822000000000001 140.346 12.510000000000002 z M 127.602 -6.786 L 127.602 -6.786 C 127.482 -6.425999999999999 127.302 -5.933999999999999 127.062 -5.31 C 126.822 -4.686 126.54599999999999 -3.9659999999999993 126.234 -3.1499999999999995 C 125.922 -2.3339999999999996 125.58 -1.4339999999999995 125.208 -0.4499999999999993 C 124.836 0.5340000000000007 124.458 1.5660000000000007 124.074 2.646000000000001 L 124.074 2.646000000000001 L 131.166 2.646000000000001 C 130.782 1.5660000000000007 130.41 0.5340000000000007 130.04999999999998 -0.4499999999999993 C 129.68999999999997 -1.4339999999999993 129.34799999999998 -2.333999999999999 129.02399999999997 -3.1499999999999995 C 128.69999999999996 -3.9659999999999993 128.41799999999998 -4.686 128.17799999999997 -5.31 C 127.93799999999997 -5.933999999999999 127.74599999999997 -6.426 127.60199999999998 -6.786 z" stroke-linecap="round" />
</g>
</g>
</g>
</svg>