<?xml version="1.0" standalone="no"?>
<!DOCTYPE svg PUBLIC "-//W3C//DTD SVG 20010904//EN" "http://www.w3.org/TR/2001/REC-SVG-20010904/DTD/svg10.dtd">
<!-- Created using Krita: https://krita.org -->
<svg xmlns="http://www.w3.org/2000/svg" 
    xmlns:xlink="http://www.w3.org/1999/xlink"
    xmlns:krita="http://krita.org/namespaces/svg/krita"
    xmlns:sodipodi="http://sodipodi.sourceforge.net/DTD/sodipodi-0.dtd"
    width="384pt"
    height="72pt"
    viewBox="0 0 384 72">
<defs/>
<text id="shape0" krita:useRichText="true" krita:textVersion="2" transform="translate(85.5082872928175, 48.9668508287293)" fill="#ffffff" stroke-opacity="0" stroke="#000000" stroke-width="0" stroke-linecap="square" stroke-linejoin="bevel" font-family="Ubuntu" font-size="36" font-size-adjust="0.463953" font-stretch="normal" font-weight="700" letter-spacing="0" word-spacing="0"><tspan x="0">EURASIA MEDIA</tspan></text><path id="shape01" transform="matrix(0.0327727797577793 0 0 0.0327727797577793 39.4779562741176 43.4578980332586)" fill="#ffffff" stroke-opacity="0" stroke="#000000" stroke-width="0" stroke-linecap="square" stroke-linejoin="bevel" d="M815.941 22.985L654.14 245.685C593.847 328.671 477.697 347.067 394.711 286.774L0 0Z" sodipodi:nodetypes="ccccc"/><path id="shape1" transform="matrix(0.0327727797577793 0 0 0.0327727797577793 15.9436920389371 19.4455095690717)" fill="#ffffff" stroke-opacity="0" stroke="#000000" stroke-width="0" stroke-linecap="square" stroke-linejoin="bevel" d="M0 299.274L161.801 76.5741C222.094 -6.4119 338.244 -24.8079 421.23 35.4841L815.941 322.258Z" sodipodi:nodetypes="ccccc"/><path id="shape2" transform="matrix(0.0327727797577793 0 0 0.0327727797577793 35.8309685698921 41.2311187398362)" fill="#ffffff" stroke-opacity="0" stroke="#000000" stroke-width="0" stroke-linecap="square" stroke-linejoin="bevel" d="M646.6 498.193L384.801 583.257C287.245 614.955 182.465 561.566 150.767 464.011L0 0Z" sodipodi:nodetypes="ccccc"/><path id="shape3" transform="matrix(0.0327727797577793 0 0 0.0327727797577793 25.1404550401246 12.8191018145041)" fill="#ffffff" stroke-opacity="0" stroke="#000000" stroke-width="0" stroke-linecap="square" stroke-linejoin="bevel" d="M0 94.2045L261.799 9.1405C359.355 -22.5575 464.135 30.8315 495.833 128.387L646.599 592.398Z" sodipodi:nodetypes="ccccc"/><path id="shape4" transform="matrix(0.0327727797577793 0 0 0.0327727797577793 28.948797477443 37.2859315125944)" fill="#ffffff" stroke-opacity="0" stroke="#000000" stroke-width="0" stroke-linecap="square" stroke-linejoin="bevel" d="M390.186 783.109L128.387 698.045C30.8306 666.347 -22.5574 561.566 9.14059 464.011L159.907 0Z" sodipodi:nodetypes="ccccc"/><path id="shape5" transform="matrix(0.0327727797577793 0 0 0.0327727797577793 40.4260072469506 10.5141426834825)" fill="#ffffff" stroke-opacity="0" stroke="#000000" stroke-width="0" stroke-linecap="square" stroke-linejoin="bevel" d="M0 0L261.799 85.064C359.355 116.762 412.743 221.542 381.045 319.098L230.279 783.109Z" sodipodi:nodetypes="ccccc"/><path id="shape6" transform="matrix(0.0327727797577793 0 0 0.0327727797577793 19.7348600335414 33.1293598559156)" fill="#ffffff" stroke-opacity="0" stroke="#000000" stroke-width="0" stroke-linecap="square" stroke-linejoin="bevel" d="M197.286 768.903L35.4845 546.203C-24.8085 463.217 -6.41141 347.067 76.5745 286.774L471.286 0Z" sodipodi:nodetypes="ccccc"/><path id="shape7" transform="matrix(0.0327727797577793 0 0 0.0327727797577793 46.9820707463758 15.1363172221799)" fill="#ffffff" stroke-opacity="0" stroke="#000000" stroke-width="0" stroke-linecap="square" stroke-linejoin="bevel" d="M274 0L435.801 222.7C496.094 305.686 477.697 421.836 394.711 482.129L0 768.903Z" sodipodi:nodetypes="ccccc"/><path id="shape8" transform="matrix(0.0327727797577793 0 0 0.0327727797577793 16.3485669600647 30.3489499940456)" fill="#ffffff" stroke-opacity="0" stroke="#000000" stroke-width="0" stroke-linecap="square" stroke-linejoin="bevel" d="M0 461.003L0 185.731C0 83.155 83.154 0 185.731 0L673.621 0Z" sodipodi:nodetypes="ccccc"/><path id="shape9" transform="matrix(0.0327727797577793 0 0 0.0327727797577793 43.7372705953377 28.0074331986913)" fill="#ffffff" stroke-opacity="0" stroke="#000000" stroke-width="0" stroke-linecap="square" stroke-linejoin="bevel" d="M673.621 0L673.621 275.272C673.621 377.848 590.467 461.003 487.89 461.003L0 461.003Z" sodipodi:nodetypes="ccccc"/>
</svg>
