<?xml version="1.0" standalone="no"?>
<!DOCTYPE svg PUBLIC "-//W3C//DTD SVG 20010904//EN" "http://www.w3.org/TR/2001/REC-SVG-20010904/DTD/svg10.dtd">
<!-- Created using Krita: https://krita.org -->
<svg xmlns="http://www.w3.org/2000/svg" 
    xmlns:xlink="http://www.w3.org/1999/xlink"
    xmlns:krita="http://krita.org/namespaces/svg/krita"
    xmlns:sodipodi="http://sodipodi.sourceforge.net/DTD/sodipodi-0.dtd"
    width="384pt"
    height="72pt"
    viewBox="0 0 384 72">
<defs/>
<text id="shape0" krita:useRichText="true" krita:textVersion="2" transform="translate(85.5082872928175, 48.9668508287293)" fill="#ea2049" stroke-opacity="0" stroke="#000000" stroke-width="0" stroke-linecap="square" stroke-linejoin="bevel" font-family="Ubuntu" font-size="36" font-size-adjust="0.463953" font-stretch="normal" font-weight="700" letter-spacing="0" word-spacing="0"><tspan x="0">EURASIA MEDIA</tspan></text><g id="group0" transform="matrix(1.00000000549769 0 0 1.00000000549769 15.9436920389371 10.5141426834825)" fill="none">
  <path id="shape01" transform="matrix(0.0327727795776047 0 0 0.0327727795776047 23.5342641057964 32.9437551686615)" fill="#ea2049" stroke-opacity="0" stroke="#000000" stroke-width="0" stroke-linecap="square" stroke-linejoin="bevel" d="M815.941 22.985L654.14 245.685C593.847 328.671 477.697 347.067 394.711 286.774L0 0Z" sodipodi:nodetypes="ccccc"/>
  <path id="shape1" transform="matrix(0.0327727795776047 0 0 0.0327727795776047 0 8.93136632186981)" fill="#ea2049" stroke-opacity="0" stroke="#000000" stroke-width="0" stroke-linecap="square" stroke-linejoin="bevel" d="M0 299.274L161.801 76.5741C222.094 -6.4119 338.244 -24.8079 421.23 35.4841L815.941 322.258Z" sodipodi:nodetypes="ccccc"/>
  <path id="shape2" transform="matrix(0.0327727795776047 0 0 0.0327727795776047 19.8872764216209 30.7169758874813)" fill="#ea2049" stroke-opacity="0" stroke="#000000" stroke-width="0" stroke-linecap="square" stroke-linejoin="bevel" d="M646.6 498.193L384.801 583.257C287.245 614.955 182.465 561.566 150.767 464.011L0 0Z" sodipodi:nodetypes="ccccc"/>
  <path id="shape3" transform="matrix(0.0327727795776047 0 0 0.0327727795776047 9.19676295062657 2.30495889387616)" fill="#ea2049" stroke-opacity="0" stroke="#000000" stroke-width="0" stroke-linecap="square" stroke-linejoin="bevel" d="M0 94.2045L261.799 9.1405C359.355 -22.5575 464.135 30.8315 495.833 128.387L646.599 592.398Z" sodipodi:nodetypes="ccccc"/>
  <path id="shape4" transform="matrix(0.0327727795776047 0 0 0.0327727795776047 13.0051048413498 26.7717886819289)" fill="#ea2049" stroke-opacity="0" stroke="#000000" stroke-width="0" stroke-linecap="square" stroke-linejoin="bevel" d="M390.186 783.109L128.387 698.045C30.8306 666.347 -22.5574 561.566 9.14059 464.011L159.907 0Z" sodipodi:nodetypes="ccccc"/>
  <path id="shape5" transform="matrix(0.0327727795776047 0 0 0.0327727795776047 24.4823150734173 0)" fill="#ea2049" stroke-opacity="0" stroke="#000000" stroke-width="0" stroke-linecap="square" stroke-linejoin="bevel" d="M0 0L261.799 85.064C359.355 116.762 412.743 221.542 381.045 319.098L230.279 783.109Z" sodipodi:nodetypes="ccccc"/>
  <path id="shape6" transform="matrix(0.0327727795776047 0 0 0.0327727795776047 3.79116865412312 22.6152170481016)" fill="#ea2049" stroke-opacity="0" stroke="#000000" stroke-width="0" stroke-linecap="square" stroke-linejoin="bevel" d="M197.286 768.903L35.4845 546.203C-24.8085 463.217 -6.41141 347.067 76.5745 286.774L471.286 0Z" sodipodi:nodetypes="ccccc"/>
  <path id="shape7" transform="matrix(0.0327727795776047 0 0 0.0327727795776047 31.0383785367993 4.62217451328615)" fill="#ea2049" stroke-opacity="0" stroke="#000000" stroke-width="0" stroke-linecap="square" stroke-linejoin="bevel" d="M274 0L435.801 222.7C496.094 305.686 477.697 421.836 394.711 482.129L0 768.903Z" sodipodi:nodetypes="ccccc"/>
  <path id="shape8" transform="matrix(0.0327727795776047 0 0 0.0327727795776047 0.404874918901768 19.8348072015175)" fill="#ea2049" stroke-opacity="0" stroke="#000000" stroke-width="0" stroke-linecap="square" stroke-linejoin="bevel" d="M0 461.003L0 185.731C0 83.155 83.154 0 185.731 0L673.621 0Z" sodipodi:nodetypes="ccccc"/>
  <path id="shape9" transform="matrix(0.0327727795776047 0 0 0.0327727795776047 27.7935784036001 17.4932904190361)" fill="#ea2049" stroke-opacity="0" stroke="#000000" stroke-width="0" stroke-linecap="square" stroke-linejoin="bevel" d="M673.621 0L673.621 275.272C673.621 377.848 590.467 461.003 487.89 461.003L0 461.003Z" sodipodi:nodetypes="ccccc"/>
 </g>
</svg>
