<?xml version="1.0" encoding="UTF-8" standalone="no" ?>
<!DOCTYPE svg PUBLIC "-//W3C//DTD SVG 1.1//EN" "http://www.w3.org/Graphics/SVG/1.1/DTD/svg11.dtd">
<svg xmlns="http://www.w3.org/2000/svg" xmlns:xlink="http://www.w3.org/1999/xlink" version="1.1" width="1000" height="720" viewBox="0 0 1000 720" xml:space="preserve">
<desc>Created with Fabric.js 5.3.0</desc>
<defs>
</defs>
<g transform="matrix(1 0 0 1 507.4696505326 345.0063770174)" id="rs0hILCgEG0OA6dWSL5pc"  >
<g style="" vector-effect="non-scaling-stroke"   >
		<g transform="matrix(0.0719944495 0 0 -0.1097787706 12.2478069971 0)" id="qUdN1TqyI1u9jRwUcAGS5"  >
<path style="stroke: rgb(0,0,0); stroke-opacity: 0; stroke-width: 0; stroke-dasharray: none; stroke-linecap: square; stroke-dashoffset: 0; stroke-linejoin: bevel; stroke-miterlimit: 4; fill: rgb(255,255,255); fill-rule: nonzero; opacity: 1;" vector-effect="non-scaling-stroke"  transform=" translate(-2514.35, -2444.9199989483)" d="M 0.162046 3981.25 L 0.162046 3072.82 L 424.156 3072.82 L 846.53 3072.82 L 877.561 3127.19 C 916.371 3200.19 1112.04 3385 1230.09 3461.08 C 1497.23 3634.96 1697.52 3639.66 2183.65 3484.34 C 2488.06 3388.08 2654.24 3350.81 2832.81 3338.33 L 2984.97 3329.01 L 2722.46 3131.8 C 2158.7 2712.51 1737.86 2358.44 1470.81 2080.45 C 908.674 1494.98 658.637 951.472 688.129 379.935 C 694.368 275.901 708.304 150.073 719.161 98.866 L 739.336 5.68938 L 2188.27 1.07106 C 3346.82 -2.00782 3635.59 1.07106 3629.43 16.6275 C 3475.73 367.62 3402.73 731.008 3401.19 1142.52 C 3399.65 2145.75 3863.99 3110.09 4784.9 4021.68 L 5028.7 4262.4 L 4789.52 4529.53 C 4657.53 4677.08 4545.72 4796.67 4541.02 4796.67 C 4536.32 4796.67 4502.21 4771.79 4468.02 4740.76 C 4377.92 4663.14 4180.71 4571.5 4014.53 4529.53 C 3893.4 4498.5 3835.96 4493.8 3579.68 4495.34 C 3189.88 4495.34 3070.29 4518.68 2391.64 4715.89 C 1756.5 4902.24 1478.51 4916.26 1141.53 4782.65 C 1076.31 4756.24 1006.39 4734.52 987.753 4734.52 C 941.165 4734.52 885.259 4796.67 885.259 4847.87 L 885.259 4889.84 L 442.629 4889.84 L 0 4889.84 L 0 3981.25 Z M 1632.29 4569.8 C 1669.56 4524.75 1629.21 4495.26 1511.16 4476.63 C 1452.18 4468.85 1360.54 4443.97 1307.71 4425.42 C 1205.22 4386.61 1164.87 4395.93 1164.87 4454.91 C 1164.87 4495.26 1197.44 4515.52 1323.27 4557.41 C 1458.42 4600.92 1601.26 4607.07 1632.29 4569.8 Z M 1809.33 331.807 L 1809.33 285.219 L 1403.97 280.601 C 969.117 275.982 947.403 280.601 970.657 355.142 C 979.975 386.174 987.753 386.174 1394.57 383.095 L 1809.25 378.477 L 1809.25 331.807 Z" stroke-linecap="round" />
</g>
		<g transform="matrix(0.0719944483 0 0 -0.1097787687 315.0244730385 40.6617462563)" id="2KyZ7kgJVIVnig8Xbx63b"  >
<path style="stroke: rgb(0,0,0); stroke-opacity: 0; stroke-width: 0; stroke-dasharray: none; stroke-linecap: square; stroke-dashoffset: 0; stroke-linejoin: bevel; stroke-miterlimit: 4; fill: rgb(255,255,255); fill-rule: nonzero; opacity: 1;" vector-effect="non-scaling-stroke"  transform=" translate(-1865.565, -1814.0500003946)" d="M 0.120233 2953.95 L 0.120233 2279.93 L 314.71 2279.93 L 628.097 2279.93 L 651.121 2320.27 C 679.917 2374.43 825.098 2511.56 912.688 2568.01 C 1110.89 2697.02 1259.5 2700.5 1620.2 2585.26 C 1846.06 2513.84 1969.36 2486.19 2101.85 2476.93 L 2214.75 2470.02 L 2019.97 2323.69 C 1601.68 2012.59 1289.44 1749.88 1091.29 1543.62 C 674.206 1109.22 488.687 705.96 510.569 281.899 C 515.198 204.71 525.538 111.349 533.594 73.3553 L 548.563 4.22133 L 1623.63 0.794692 C 2483.23 -1.48973 2697.49 0.794692 2692.92 12.337 C 2578.88 272.762 2524.71 542.384 2523.57 847.714 C 2522.43 1592.08 2866.95 2307.58 3550.24 2983.95 L 3731.13 3162.56 L 3553.66 3360.76 C 3455.73 3470.23 3372.77 3558.97 3369.29 3558.97 C 3365.8 3558.97 3340.49 3540.51 3315.12 3517.49 C 3248.27 3459.89 3101.95 3391.9 2978.65 3360.76 C 2888.78 3337.74 2846.15 3334.25 2656.01 3335.39 C 2366.78 3335.39 2278.05 3352.71 1774.52 3499.03 C 1303.26 3637.3 1097.01 3647.7 846.981 3548.57 C 798.587 3528.97 746.707 3512.86 732.88 3512.86 C 698.313 3512.86 656.832 3558.97 656.832 3596.96 L 656.832 3628.1 L 328.416 3628.1 L 0 3628.1 L 0 2953.95 Z M 1211.11 3390.64 C 1238.76 3357.22 1208.82 3335.33 1121.23 3321.51 C 1077.47 3315.74 1009.48 3297.28 970.28 3283.51 C 894.232 3254.72 864.294 3261.63 864.294 3305.4 C 864.294 3335.33 888.461 3350.36 981.822 3381.44 C 1082.1 3413.73 1188.08 3418.29 1211.11 3390.64 Z M 1342.46 246.19 L 1342.46 211.623 L 1041.7 208.197 C 719.053 204.77 702.942 208.197 720.195 263.504 C 727.109 286.528 732.88 286.528 1034.72 284.244 L 1342.4 280.817 L 1342.4 246.19 Z" stroke-linecap="round" />
</g>
		<g transform="matrix(0.0719944481 0 0 -0.1097787684 -315.0244734116 40.6617299795)" id="-Yo1nOuUeHETAuz6usZHF"  >
<path style="stroke: rgb(0,0,0); stroke-opacity: 0; stroke-width: 0; stroke-dasharray: none; stroke-linecap: square; stroke-dashoffset: 0; stroke-linejoin: bevel; stroke-miterlimit: 4; fill: rgb(255,255,255); fill-rule: nonzero; opacity: 1;" vector-effect="non-scaling-stroke"  transform=" translate(-1865.565, -1814.0500001027)" d="M 0.120233 2953.95 L 0.120233 2279.93 L 314.71 2279.93 L 628.097 2279.93 L 651.121 2320.27 C 679.917 2374.43 825.098 2511.56 912.688 2568.01 C 1110.89 2697.02 1259.5 2700.5 1620.2 2585.26 C 1846.06 2513.84 1969.36 2486.19 2101.85 2476.93 L 2214.75 2470.02 L 2019.97 2323.69 C 1601.68 2012.59 1289.44 1749.88 1091.29 1543.62 C 674.206 1109.22 488.687 705.96 510.569 281.899 C 515.198 204.71 525.538 111.349 533.594 73.3553 L 548.563 4.22133 L 1623.63 0.794691 C 2483.23 -1.48973 2697.49 0.794691 2692.92 12.337 C 2578.88 272.762 2524.71 542.384 2523.57 847.714 C 2522.43 1592.08 2866.95 2307.58 3550.24 2983.95 L 3731.13 3162.56 L 3553.66 3360.76 C 3455.73 3470.23 3372.77 3558.97 3369.29 3558.97 C 3365.8 3558.97 3340.49 3540.51 3315.12 3517.49 C 3248.27 3459.89 3101.95 3391.9 2978.65 3360.76 C 2888.78 3337.74 2846.15 3334.25 2656.01 3335.39 C 2366.78 3335.39 2278.05 3352.71 1774.52 3499.03 C 1303.26 3637.3 1097.01 3647.7 846.981 3548.57 C 798.587 3528.97 746.707 3512.86 732.88 3512.86 C 698.313 3512.86 656.832 3558.97 656.832 3596.96 L 656.832 3628.1 L 328.416 3628.1 L 0 3628.1 L 0 2953.95 Z M 1211.11 3390.64 C 1238.76 3357.22 1208.82 3335.33 1121.23 3321.51 C 1077.47 3315.74 1009.48 3297.28 970.28 3283.51 C 894.232 3254.72 864.294 3261.63 864.294 3305.4 C 864.294 3335.33 888.461 3350.36 981.822 3381.44 C 1082.1 3413.73 1188.08 3418.29 1211.11 3390.64 Z M 1342.46 246.19 L 1342.46 211.623 L 1041.7 208.197 C 719.053 204.77 702.942 208.197 720.195 263.504 C 727.109 286.528 732.88 286.528 1034.72 284.244 L 1342.4 280.817 L 1342.4 246.19 Z" stroke-linecap="round" />
</g>
</g>
</g>
</svg>