<?xml version="1.0" standalone="no"?>
<!DOCTYPE svg PUBLIC "-//W3C//DTD SVG 20010904//EN" "http://www.w3.org/TR/2001/REC-SVG-20010904/DTD/svg10.dtd">
<!-- Created using Krita: https://krita.org -->
<svg xmlns="http://www.w3.org/2000/svg" 
    xmlns:xlink="http://www.w3.org/1999/xlink"
    xmlns:krita="http://krita.org/namespaces/svg/krita"
    xmlns:sodipodi="http://sodipodi.sourceforge.net/DTD/sodipodi-0.dtd"
    width="720pt"
    height="720pt"
    viewBox="0 0 720 720">
<defs/>
<g id="group0" transform="matrix(1 0 0 1.25 22.0626793647617 201.300390117035)" fill="none">
  <path id="shape0" transform="matrix(0.0539958371583482 0 0 -0.0658672623491908 210.422519084972 322.080624187256)" fill="#ea2049" stroke-opacity="0" stroke="#000000" stroke-width="0" stroke-linecap="square" stroke-linejoin="bevel" d="M0.162046 3981.25L0.162046 3072.82L424.156 3072.82L846.53 3072.82L877.561 3127.19C916.371 3200.19 1112.04 3385 1230.09 3461.08C1497.23 3634.96 1697.52 3639.66 2183.65 3484.34C2488.06 3388.08 2654.24 3350.81 2832.81 3338.33L2984.97 3329.01L2722.46 3131.8C2158.7 2712.51 1737.86 2358.44 1470.81 2080.45C908.674 1494.98 658.637 951.472 688.129 379.935C694.368 275.901 708.304 150.073 719.161 98.866L739.336 5.68938L2188.27 1.07106C3346.82 -2.00782 3635.59 1.07106 3629.43 16.6275C3475.73 367.62 3402.73 731.008 3401.19 1142.52C3399.65 2145.75 3863.99 3110.09 4784.9 4021.68L5028.7 4262.4L4789.52 4529.53C4657.53 4677.08 4545.72 4796.67 4541.02 4796.67C4536.32 4796.67 4502.21 4771.79 4468.02 4740.76C4377.92 4663.14 4180.71 4571.5 4014.53 4529.53C3893.4 4498.5 3835.96 4493.8 3579.68 4495.34C3189.88 4495.34 3070.29 4518.68 2391.64 4715.89C1756.5 4902.24 1478.51 4916.26 1141.53 4782.65C1076.31 4756.24 1006.39 4734.52 987.753 4734.52C941.165 4734.52 885.259 4796.67 885.259 4847.87L885.259 4889.84L442.629 4889.84L0 4889.84L0 3981.25ZM1632.29 4569.8C1669.56 4524.75 1629.21 4495.26 1511.16 4476.63C1452.18 4468.85 1360.54 4443.97 1307.71 4425.42C1205.22 4386.61 1164.87 4395.93 1164.87 4454.91C1164.87 4495.26 1197.44 4515.52 1323.27 4557.41C1458.42 4600.92 1601.26 4607.07 1632.29 4569.8ZM1809.33 331.807L1809.33 285.219L1403.97 280.601C969.117 275.982 947.403 280.601 970.657 355.142C979.975 386.174 987.753 386.174 1394.57 383.095L1809.25 378.477L1809.25 331.807Z" sodipodi:nodetypes="ccccccccccccccccccccccccccccccccccccccccccccccc"/>
  <path id="shape0" transform="matrix(0.0539958362490247 0 0 -0.065867261239945 472.53670952323 304.923990225872)" fill="#ea2049" stroke-opacity="0" stroke="#000000" stroke-width="0" stroke-linecap="square" stroke-linejoin="bevel" d="M0.120233 2953.95L0.120233 2279.93L314.71 2279.93L628.097 2279.93L651.121 2320.27C679.917 2374.43 825.098 2511.56 912.688 2568.01C1110.89 2697.02 1259.5 2700.5 1620.2 2585.26C1846.06 2513.84 1969.36 2486.19 2101.85 2476.93L2214.75 2470.02L2019.97 2323.69C1601.68 2012.59 1289.44 1749.88 1091.29 1543.62C674.206 1109.22 488.687 705.96 510.569 281.899C515.198 204.71 525.538 111.349 533.594 73.3553L548.563 4.22133L1623.63 0.794692C2483.23 -1.48973 2697.49 0.794692 2692.92 12.337C2578.88 272.762 2524.71 542.384 2523.57 847.714C2522.43 1592.08 2866.95 2307.58 3550.24 2983.95L3731.13 3162.56L3553.66 3360.76C3455.73 3470.23 3372.77 3558.97 3369.29 3558.97C3365.8 3558.97 3340.49 3540.51 3315.12 3517.49C3248.27 3459.89 3101.95 3391.9 2978.65 3360.76C2888.78 3337.74 2846.15 3334.25 2656.01 3335.39C2366.78 3335.39 2278.05 3352.71 1774.52 3499.03C1303.26 3637.3 1097.01 3647.7 846.981 3548.57C798.587 3528.97 746.707 3512.86 732.88 3512.86C698.313 3512.86 656.832 3558.97 656.832 3596.96L656.832 3628.1L328.416 3628.1L0 3628.1L0 2953.95ZM1211.11 3390.64C1238.76 3357.22 1208.82 3335.33 1121.23 3321.51C1077.47 3315.74 1009.48 3297.28 970.28 3283.51C894.232 3254.72 864.294 3261.63 864.294 3305.4C864.294 3335.33 888.461 3350.36 981.822 3381.44C1082.1 3413.73 1188.08 3418.29 1211.11 3390.64ZM1342.46 246.19L1342.46 211.623L1041.7 208.197C719.053 204.77 702.942 208.197 720.195 263.504C727.109 286.528 732.88 286.528 1034.72 284.244L1342.4 280.817L1342.4 246.19Z" sodipodi:nodetypes="ccccccccccccccccccccccccccccccccccccccccccccccc"/>
  <path id="shape01" transform="matrix(0.0539958360805263 0 0 -0.0658672610344009 3.5527136788005e-15 304.923980067657)" fill="#ea2049" stroke-opacity="0" stroke="#000000" stroke-width="0" stroke-linecap="square" stroke-linejoin="bevel" d="M0.120233 2953.95L0.120233 2279.93L314.71 2279.93L628.097 2279.93L651.121 2320.27C679.917 2374.43 825.098 2511.56 912.688 2568.01C1110.89 2697.02 1259.5 2700.5 1620.2 2585.26C1846.06 2513.84 1969.36 2486.19 2101.85 2476.93L2214.75 2470.02L2019.97 2323.69C1601.68 2012.59 1289.44 1749.88 1091.29 1543.62C674.206 1109.22 488.687 705.96 510.569 281.899C515.198 204.71 525.538 111.349 533.594 73.3553L548.563 4.22133L1623.63 0.794691C2483.23 -1.48973 2697.49 0.794691 2692.92 12.337C2578.88 272.762 2524.71 542.384 2523.57 847.714C2522.43 1592.08 2866.95 2307.58 3550.24 2983.95L3731.13 3162.56L3553.66 3360.76C3455.73 3470.23 3372.77 3558.97 3369.29 3558.97C3365.8 3558.97 3340.49 3540.51 3315.12 3517.49C3248.27 3459.89 3101.95 3391.9 2978.65 3360.76C2888.78 3337.74 2846.15 3334.25 2656.01 3335.39C2366.78 3335.39 2278.05 3352.71 1774.52 3499.03C1303.26 3637.3 1097.01 3647.7 846.981 3548.57C798.587 3528.97 746.707 3512.86 732.88 3512.86C698.313 3512.86 656.832 3558.97 656.832 3596.96L656.832 3628.1L328.416 3628.1L0 3628.1L0 2953.95ZM1211.11 3390.64C1238.76 3357.22 1208.82 3335.33 1121.23 3321.51C1077.47 3315.74 1009.48 3297.28 970.28 3283.51C894.232 3254.72 864.294 3261.63 864.294 3305.4C864.294 3335.33 888.461 3350.36 981.822 3381.44C1082.1 3413.73 1188.08 3418.29 1211.11 3390.64ZM1342.46 246.19L1342.46 211.623L1041.7 208.197C719.053 204.77 702.942 208.197 720.195 263.504C727.109 286.528 732.88 286.528 1034.72 284.244L1342.4 280.817L1342.4 246.19Z" sodipodi:nodetypes="ccccccccccccccccccccccccccccccccccccccccccccccc"/>
 </g>
</svg>
