<?xml version="1.0" standalone="no"?>
<!DOCTYPE svg PUBLIC "-//W3C//DTD SVG 20010904//EN" "http://www.w3.org/TR/2001/REC-SVG-20010904/DTD/svg10.dtd">
<!-- Created using Krita: https://krita.org -->
<svg xmlns="http://www.w3.org/2000/svg" 
    xmlns:xlink="http://www.w3.org/1999/xlink"
    xmlns:krita="http://krita.org/namespaces/svg/krita"
    xmlns:sodipodi="http://sodipodi.sourceforge.net/DTD/sodipodi-0.dtd"
    width="720pt"
    height="720pt"
    viewBox="0 0 720 720">
<defs/>
<g id="group0" transform="translate(37.3879667296787, 7.20000000000002)" fill="none">
  <path id="shape0" transform="matrix(0.072 0 0 -0.072 189.878120262444 252.6624)" fill="#ea2049" stroke-opacity="0" stroke="#000000" stroke-width="0" stroke-linecap="square" stroke-linejoin="bevel" d="M1719.5 3480.7C1659.5 3446.7 1661.5 3450.7 1455.5 2820.6L1307.5 2360.5L713.404 2350.5L119.304 2340.5L61.3039 2274.5C-22.6961 2180.5 -20.6961 2074.5 69.3039 1982.4C103.304 1946.4 317.404 1782.4 543.404 1620.3C769.404 1458.3 957.504 1322.2 959.504 1318.2C963.504 1316.2 889.504 1074.2 795.504 784.1C701.504 492 623.504 226 623.504 192C623.504 152 643.504 108 681.504 66C731.504 10 753.504 0 827.504 0C907.504 0 945.504 24 1363.6 328C1611.6 510 1827.7 658 1843.7 658C1859.7 658 2075.7 510 2323.8 328C2741.9 24 2779.9 0 2859.9 0C2933.9 0 2955.9 10 3005.9 66C3043.9 108 3063.9 152 3063.9 192C3063.9 226 2985.9 492 2891.9 784.1C2797.9 1074.1 2723.9 1316.2 2727.9 1318.2C2729.9 1322.2 2917.9 1458.2 3144 1620.3C3370 1782.3 3584.1 1946.3 3620.1 1982.4C3708.1 2074.4 3710.1 2180.4 3626.1 2274.5L3568.1 2340.5L2974 2350.5L2379.9 2360.5L2231.9 2820.6C2023.9 3458.7 2027.9 3446.7 1963.9 3480.7C1891.5 3518.7 1789.5 3518.7 1719.5 3480.7Z" sodipodi:nodetypes="cccccccccccccccccccccccccccccc"/>
  <path id="shape1" transform="matrix(0.072 0 0 -0.072 214.780124224801 705.5928)" fill="#ea2049" stroke-opacity="0" stroke="#000000" stroke-width="0" stroke-linecap="square" stroke-linejoin="bevel" d="M73.4427 5902.8L7.44272 5844.8L1.44272 3036.4C-2.55728 1086.1 1.44272 208 17.4427 156C29.4427 116 61.4427 64 91.4427 42C141.443 0 161.443 0 1497.64 0C2833.84 0 2853.84 0 2903.84 42C2933.84 64 2965.84 116 2977.84 156C2993.84 208 2997.84 1086.1 2993.84 3036.4L2987.84 5844.8L2921.84 5902.8L2857.84 5960.8L1497.64 5960.8L137.443 5960.8ZM1585.64 5092.7C1719.64 5036.7 1717.64 5060.7 1717.64 3742.5L1717.64 2560.3L1827.64 2560.3C1969.64 2560.3 2067.64 2520.3 2105.64 2442.3C2145.64 2366.3 2145.64 2314.3 2105.64 2238.2C2051.64 2132.2 1987.64 2120.2 1497.54 2120.2C993.443 2120.2 939.443 2132.2 883.443 2248.2C835.443 2348.2 865.443 2454.2 955.443 2514.3C1007.44 2550.3 1051.44 2560.3 1149.44 2560.3L1277.44 2560.3L1277.44 3372.4L1277.44 4186.5L1237.44 4134.5C1215.44 4106.5 1165.44 4072.5 1129.44 4060.5C987.443 4014.5 839.443 4142.5 863.443 4292.6C869.443 4330.6 975.443 4508.6 1115.44 4718.6C1391.64 5128.7 1429.64 5158.7 1585.64 5092.7Z" sodipodi:nodetypes="ccccccccccccccccccccccccccccccccc"/>
  <path id="shape2" transform="matrix(0.072 0 0 -0.072 0 705.6)" fill="#ea2049" stroke-opacity="0" stroke="#000000" stroke-width="0" stroke-linecap="square" stroke-linejoin="bevel" d="M68 4192.7L0 4124.7L0 2130.4L0 136L68 68L136 0L1280.2 0L2424.4 0L2492.4 68L2560.4 136L2560.4 2130.3L2560.4 4124.6L2492.4 4192.6L2424.4 4260.6L1280.2 4260.6L136 4260.6ZM1640.2 3326.5C2052.3 3126.5 2248.3 2612.4 2056.3 2232.3C2032.3 2184.3 1832.3 1964.2 1584.2 1716.2L1152.1 1280.1L1546.2 1280.1C2000.3 1280.1 2052.3 1268.1 2108.3 1152.1C2152.3 1058.1 2136.3 984.1 2058.3 908.1L1998.3 850.1L1292.2 850.1C512.1 850.1 508.1 850.1 450.1 974.1C386.1 1108.1 396.1 1122.1 1050.2 1780.2C1382.3 2116.2 1666.3 2410.3 1678.3 2434.3C1712.3 2500.3 1704.3 2640.3 1662.3 2730.3C1510.3 3058.3 1066.2 3062.4 898.2 2736.3C878.2 2694.3 860.2 2634.3 860.2 2600.3C860.2 2504.3 810.2 2406.3 742.2 2372.3C662.2 2330.3 604.2 2332.3 526.2 2380.3C294.2 2520.3 494.2 3082.4 852.3 3292.4C1002.3 3380.4 1092.3 3400.4 1310.4 3394.4C1486.2 3388.5 1524.2 3380.5 1640.2 3326.5Z" sodipodi:nodetypes="ccccccccccccccccccccccccccccccccccccc"/>
  <path id="shape3" transform="matrix(0.072 0 0 -0.072 460.871999999999 705.6)" fill="#ea2049" stroke-opacity="0" stroke="#000000" stroke-width="0" stroke-linecap="square" stroke-linejoin="bevel" d="M104 3800.6C68 3778.6 30 3736.6 20 3708.6C8 3676.6 0 2992.5 0 1896.3L0 136L68 68L136 0L1280.2 0L2424.4 0L2492.4 68L2560.4 136L2560.4 1898.3C2560.4 3834.6 2566.4 3746.6 2440.4 3810.6C2390.4 3836.6 2226.4 3840.6 1276.2 3840.6C206 3840.6 168 3838.6 104 3800.6ZM1770.3 2916.4C1892.3 2854.4 2030.3 2708.4 2080.3 2594.4C2160.3 2408.3 2140.3 2164.3 2030.3 1996.3L1982.3 1924.3L2054.3 1782.3C2118.3 1660.3 2126.3 1624.3 2128.3 1496.3C2130.3 1238.3 2000.3 1032.2 1764.2 916.2L1630.2 850.2L1280.2 850.2C944.2 850.2 926.1 852.2 820.1 902.2C662.1 976.2 570.1 1064.2 498.1 1210.3C384.1 1440.3 418.1 1642.4 578.1 1688.4C720.1 1728.4 826.1 1646.4 858.1 1470.4C870.1 1402.4 894.1 1356.4 930.1 1326.4C980.1 1282.4 1000.1 1280.4 1280.2 1280.4L1576.2 1280.4L1638.2 1338.4C1744.2 1436.4 1716.2 1612.4 1586.2 1678.4C1560.2 1690.4 1432.2 1700.4 1270.2 1700.4L996.2 1700.4L928.2 1768.4C836.2 1860.4 832.2 1976.4 918.2 2062.4L976.2 2120.4L1240.2 2120.4C1524.2 2120.4 1610.3 2140.4 1668.3 2222.4C1720.3 2298.4 1710.3 2408.4 1642.3 2484.4L1584.3 2550.4L1282.2 2550.4C984.2 2550.4 980.2 2550.4 928.2 2498.4C896.2 2464.4 868.2 2408.4 858.2 2348.4C820.2 2142.4 628.2 2062.4 494.1 2198.4C436.1 2256.4 430.1 2272.4 434.1 2380.4C440.1 2636.4 632.1 2876.5 900.2 2962.5C928.2 2970.5 1112.2 2976.5 1310.3 2974.5C1658.2 2970.4 1674.2 2968.4 1770.3 2916.4Z" sodipodi:nodetypes="ccccccccccccccccccccccccccccccccccccccccccccccccc"/>
 </g>
</svg>
